<svg
   xmlns="http://www.w3.org/2000/svg"
   height="256"
   width="256"
   version="1.1"
   viewBox="0 0 256 256" fill="context-fill" fill-opacity="context-fill-opacity">
  <path
     style="stroke-width:0.2"
     id="path2"
     fill="#eee"
     d="m 179.2,128 c 0,-14.13333 -5,-26.2 -15,-36.2 -10,-10 -22.06667,-15 -36.2,-15 -14.13333,0 -26.2,5 -36.2,15 -10,10 -15,22.06667 -15,36.2 0,14.13333 5,26.2 15,36.2 10,10 22.06667,15 36.2,15 14.13333,0 26.2,-5 36.2,-15 10,-10 15,-22.06667 15,-36.2 z M 256,109.8 v 37 c 0,1.33333 -0.46666,2.63333 -1.4,3.9 -0.93334,1.26667 -2,1.96666 -3.2,2.1 l -31,4.8 c -1.46666,4.66666 -3.6,9.73334 -6.4,15.2 4.53334,6.4 10.53334,14.06666 18,23 0.93334,1.46666 1.4,2.8 1.4,4 0,1.6 -0.46666,2.86666 -1.4,3.8 -3.06666,4 -8.56666,9.96666 -16.5,17.9 -7.93334,7.93334 -13.16666,11.9 -15.7,11.9 -1.46667,0 -2.86667,-0.46666 -4.2,-1.4 l -23,-18 c -4.93333,2.53334 -10.06667,4.6 -15.4,6.2 -1.46667,14.4 -3,24.73334 -4.6,31 -0.93333,3.2 -2.93333,4.8 -6,4.8 h -37.2 c -1.46667,0 -2.8,-0.5 -4,-1.5 -1.2,-1 -1.86667,-2.16666 -2,-3.5 l -4.6,-30.6 c -4.53333,-1.33334 -9.53333,-3.4 -15,-6.2 L 60.2,232 c -0.93333,0.93334 -2.26667,1.4 -4,1.4 -1.46667,0 -2.86667,-0.53334 -4.2,-1.6 -19.2,-17.73334 -28.8,-28.4 -28.8,-32 0,-1.2 0.46667,-2.46666 1.4,-3.8 1.33333,-1.86666 4.06667,-5.4 8.2,-10.6 4.13333,-5.2 7.26667,-9.26666 9.4,-12.2 -3.06667,-5.86666 -5.4,-11.33334 -7,-16.4 L 4.8,152 C 3.46667,151.86667 2.33333,151.23333 1.4,150.1 0.46667,148.96667 0,147.66667 0,146.2 v -37 c 0,-1.33333 0.46667,-2.63333 1.4,-3.9 0.93333,-1.26667 2,-1.96667 3.2,-2.1 l 31,-4.8 c 1.46667,-4.66667 3.6,-9.73333 6.4,-15.2 -4.53333,-6.4 -10.53333,-14.06667 -18,-23 -0.93333,-1.46667 -1.4,-2.8 -1.4,-4 0,-1.6 0.46667,-2.93333 1.4,-4 2.93333,-4 8.4,-9.93333 16.4,-17.8 8,-7.86667 13.26667,-11.8 15.8,-11.8 1.46667,0 2.86667,0.46667 4.2,1.4 l 23,18 c 4.53333,-2.4 9.66667,-4.53333 15.4,-6.4 1.46667,-14.4 3,-24.66667 4.6,-30.8 0.93333,-3.2 2.93333,-4.8 6,-4.8 h 37.2 c 1.46667,0 2.8,0.5 4,1.5 1.2,1 1.86667,2.16667 2,3.5 l 4.6,30.6 c 4.53333,1.33333 9.53333,3.4 15,6.2 L 195.8,24 c 1.06667,-0.93333 2.4,-1.4 4,-1.4 1.46666,0 2.86666,0.53333 4.2,1.6 19.2,17.73333 28.8,28.4 28.8,32 0,1.06667 -0.46666,2.33333 -1.4,3.8 -1.6,2.13333 -4.4,5.73333 -8.4,10.8 -4,5.06667 -7,9.06667 -9,12 3.06666,6.4 5.33334,11.86667 6.8,16.4 l 30.4,4.6 c 1.33334,0.26667 2.46666,0.96667 3.4,2.1 0.93334,1.13333 1.4,2.43333 1.4,3.9 z" />
</svg>