<?xml version="1.0" encoding="UTF-8" standalone="no"?>
<svg
   xmlns:dc="http://purl.org/dc/elements/1.1/"
   xmlns:cc="http://creativecommons.org/ns#"
   xmlns:rdf="http://www.w3.org/1999/02/22-rdf-syntax-ns#"
   xmlns:svg="http://www.w3.org/2000/svg"
   xmlns="http://www.w3.org/2000/svg"
   version="1.1"
   id="svg3360"
   viewBox="0 0 1000 1000"
   height="1000"
   width="1000">
  <defs
     id="defs3362" />
  <metadata
     id="metadata3365">
    <rdf:RDF>
      <cc:Work
         rdf:about="">
        <dc:format>image/svg+xml</dc:format>
        <dc:type
           rdf:resource="http://purl.org/dc/dcmitype/StillImage" />
        <dc:title></dc:title>
      </cc:Work>
    </rdf:RDF>
  </metadata>
  <g
     transform="translate(0,-52.362161)"
     id="layer1">
    <path
       d="m 609.29759,86.89927 c 48.80026,-0.02244 110.43917,134.80901 149.9326,163.47493 39.49343,28.66591 186.78875,45.48732 201.8902,91.89218 15.10145,46.40487 -94.0834,146.69218 -109.14217,193.11092 -15.05876,46.41873 14.45989,191.70301 -25.00716,220.40523 -39.46705,28.70223 -168.58592,-44.14826 -217.38618,-44.12582 -48.80025,0.0224 -177.85205,72.99166 -217.34547,44.32575 C 352.74598,727.31654 382.13099,582.00516 367.02954,535.60029 351.92809,489.19542 242.65104,389.0086 257.7098,342.58986 272.76857,296.17113 420.04838,279.21424 459.51542,250.51202 498.98247,221.80979 560.49733,86.92171 609.29759,86.89927 Z"
       id="path4138-3-6"
       style="opacity:0.5;fill:#00ffff;fill-opacity:1;stroke:none" />
    <path
       d="m 552.93425,179.73313 c 48.80025,-0.0224 110.43917,134.80902 149.9326,163.47493 39.49342,28.66592 186.78875,45.48732 201.8902,91.89219 15.10145,46.40487 -94.08341,146.69217 -109.14217,193.11091 -15.05877,46.41873 14.45988,191.70301 -25.00716,220.40524 -39.46705,28.70222 -168.58592,-44.14827 -217.38618,-44.12583 -48.80025,0.0224 -177.85205,72.99166 -217.34547,44.32575 C 296.38264,820.1504 325.76765,674.83902 310.6662,628.43415 295.56474,582.02928 186.2877,481.84246 201.34646,435.42373 216.40523,389.00499 363.68503,372.04811 403.15208,343.34588 442.61912,314.64365 504.13399,179.75557 552.93425,179.73313 Z"
       id="path4138-3"
       style="opacity:0.5;fill:#d6ff00;fill-opacity:1;stroke:none" />
    <path
       d="m 503.9824,255.23728 c 48.80026,-0.0224 110.43918,134.80902 149.93261,163.47493 39.49342,28.66592 186.78875,45.48732 201.8902,91.89219 15.10145,46.40487 -94.08341,146.69217 -109.14218,193.11091 -15.05876,46.41873 14.45989,191.70301 -25.00715,220.40524 -39.46705,28.70222 -168.58592,-44.14827 -217.38618,-44.12583 -48.80025,0.0224 -177.85205,72.99166 -217.34548,44.32575 C 247.4308,895.65455 276.8158,750.34317 261.71435,703.9383 246.6129,657.53343 137.33585,557.34661 152.39462,510.92788 167.45339,464.50914 314.73319,447.55226 354.20024,418.85003 393.66728,390.1478 455.18215,255.25972 503.9824,255.23728 Z"
       id="path4138"
       style="opacity:0.5;fill:#ff0000;fill-opacity:1;stroke:none" />
  </g>
</svg>
