<?xml version="1.0" encoding="UTF-8" standalone="no"?>
<svg
   xmlns:dc="http://purl.org/dc/elements/1.1/"
   xmlns:cc="http://creativecommons.org/ns#"
   xmlns:rdf="http://www.w3.org/1999/02/22-rdf-syntax-ns#"
   xmlns:svg="http://www.w3.org/2000/svg"
   xmlns="http://www.w3.org/2000/svg"
   version="1.1"
   id="svg3360"
   viewBox="0 0 1000 1000"
   height="1000"
   width="1000">
  <defs
     id="defs3362" />
  <metadata
     id="metadata3365">
    <rdf:RDF>
      <cc:Work
         rdf:about="">
        <dc:format>image/svg+xml</dc:format>
        <dc:type
           rdf:resource="http://purl.org/dc/dcmitype/StillImage" />
        <dc:title></dc:title>
      </cc:Work>
    </rdf:RDF>
  </metadata>
  <g
     transform="translate(0,-52.362161)"
     id="layer1">
    <path
       d="m 529.40022,105.44817 c 59.44114,-0.0273 134.52039,164.2041 182.62536,199.12061 48.10496,34.91651 227.518,55.40581 245.91232,111.92924 18.39432,56.52344 -114.59829,178.67836 -132.94061,235.21869 -18.34233,56.54033 17.61287,233.50382 -30.45995,268.46456 -48.07283,34.96074 -205.34604,-53.7748 -264.78718,-53.74746 -59.44114,0.0273 -216.63265,88.90748 -264.73761,53.99097 C 216.90759,885.50827 252.70001,708.51177 234.30569,651.98833 215.91137,595.46489 82.806471,473.43236 101.1488,416.89203 119.49113,360.3517 298.88527,339.69739 346.95809,304.73665 395.03092,269.77591 469.95908,105.4755 529.40022,105.44817 Z"
       id="path4138"
       style="opacity:1;fill:#ffff00;fill-opacity:1;stroke:none" />
    <path
       id="path5807"
       d="m 528.70962,236.78985 c 0.43129,-0.10101 0.76967,-0.42999 0.87493,-0.85062 0.0271,-0.1081 0.0348,-0.17202 0.0348,-0.29076 0,-0.13812 -0.009,-0.19848 -0.0564,-0.37458 -0.002,-0.0101 -0.003,-0.016 -8.7e-4,-0.0141 0.002,0.002 0.19813,0.34062 0.43582,0.75267 0.23769,0.41204 0.43841,0.75941 0.44605,0.77192 l 0.0138,0.0227 -0.90903,-5e-4 -0.90902,-4.9e-4 0.0701,-0.0163 z"
       style="opacity:1;fill:none;fill-opacity:1;stroke:none" />
    <path
       id="path5809"
       d="m 528.70962,236.78985 c 0.43129,-0.10101 0.76967,-0.42999 0.87493,-0.85062 0.0271,-0.1081 0.0348,-0.17202 0.0348,-0.29076 0,-0.13812 -0.009,-0.19848 -0.0564,-0.37458 -0.002,-0.0101 -0.003,-0.016 -8.7e-4,-0.0141 0.002,0.002 0.19813,0.34062 0.43582,0.75267 0.23769,0.41204 0.43841,0.75941 0.44605,0.77192 l 0.0138,0.0227 -0.90903,-5e-4 -0.90902,-4.9e-4 0.0701,-0.0163 z"
       style="opacity:1;fill:none;fill-opacity:1;stroke:none" />
    <path
       style="opacity:1;fill:#cccccc;fill-opacity:1;stroke:none"
       id="path6369-3"
       d="M 385.48749,753.62533 526.0368,506.62201 c 0,0 1.83584,-3.63005 5.50749,-3.63005 3.81076,0 5.71614,4.00474 5.71614,4.00474 l 128.15705,230.14184 c 0,0 17.05297,23.33384 6.74119,41.85147 -9.40548,16.8902 -32.23894,13.70141 -32.23894,13.70141 l -222.89489,-0.21075 c 0,0 -22.56972,1.1236 -29.24624,-10.00327 -7.73717,-12.89451 -2.29111,-28.85207 -2.29111,-28.85207 z" />
    <g
       id="layer1-5"
       transform="matrix(0.42158326,0,0,-0.42158326,322.65878,718.8382)">
      <g
         id="g4212">
        <path
           d="m 303.97733,361.88948 163.19165,286.79525 c 0,0 2.13159,4.21485 6.39475,4.21485 4.42466,0 6.63699,-4.6499 6.63699,-4.6499 L 629.00374,381.0322 c 0,0 19.80018,-27.09284 7.82722,-48.59365 -10.92072,-19.61119 -37.43266,-15.90874 -37.43266,-15.90874 l -258.80298,0.24475 c 0,0 -26.20568,-1.30457 -33.95779,11.61482 -8.98361,14.97172 -2.6602,33.5001 -2.6602,33.5001 z"
           id="path6369-3-3"
           style="opacity:1;fill:#cccccc;fill-opacity:1;stroke:none"
           transform="matrix(2.0429015,0,0,-2.0429015,-469.41853,1534.3024)" />
        <path
           d="m 596.42752,848.18768 c -16.41951,26.39303 181.23487,31.32738 181.23487,31.32738 l -548.16239,10.5 c 0,0 -56.15411,7.56376 -79.28493,-32.5 -25.35954,-43.92401 16.57861,-99.27202 16.57861,-99.27202 L 481.96862,212.34405 c 0,0 4.68587,-9.4993 14.05763,-9.4993 9.02967,0 13.54451,8.61054 13.54451,8.61054 l 281.65105,587.89443 c 0,0 -225.75399,-14.79989 -268.69648,-3.7708 -12.90563,3.31461 17.67704,21.11442 65.70804,26.92349 51.31846,6.20666 53.37182,3.35538 69.35458,10.00091 17.00371,7.07003 -57.8495,10.3623 -61.16043,15.68436 z"
           id="path6369-6"
           style="opacity:1;fill:#ffffff;fill-opacity:1;stroke:none" />
      </g>
    </g>
    <g
       style="fill:#ffffff"
       id="layer1-7"
       transform="matrix(0.42158326,0,0,0.42158326,322.81915,418.46751)">
      <path
         style="opacity:1;fill:#ffffff;fill-opacity:1;stroke:none"
         id="path6369"
         d="m 596.42752,848.18768 c -16.41951,26.39303 181.23487,31.32738 181.23487,31.32738 l -548.16239,10.5 c 0,0 -56.15411,7.56376 -79.28493,-32.5 -25.35954,-43.92401 16.57861,-99.27202 16.57861,-99.27202 L 481.96862,212.34405 c 0,0 4.68587,-9.4993 14.05763,-9.4993 9.02967,0 13.54451,8.61054 13.54451,8.61054 l 281.65105,587.89443 c 0,0 -225.75399,-14.79989 -268.69648,-3.7708 -12.90563,3.31461 17.67704,21.11442 65.70804,26.92349 51.31846,6.20666 53.37182,3.35538 69.35458,10.00091 17.00371,7.07003 -57.8495,10.3623 -61.16043,15.68436 z" />
    </g>
  </g>
</svg>
