<?xml version="1.0" encoding="UTF-8" standalone="no"?>
<svg
   xmlns:dc="http://purl.org/dc/elements/1.1/"
   xmlns:cc="http://creativecommons.org/ns#"
   xmlns:rdf="http://www.w3.org/1999/02/22-rdf-syntax-ns#"
   xmlns:svg="http://www.w3.org/2000/svg"
   xmlns="http://www.w3.org/2000/svg"
   xmlns:sodipodi="http://sodipodi.sourceforge.net/DTD/sodipodi-0.dtd"
   xmlns:inkscape="http://www.inkscape.org/namespaces/inkscape"
   version="1.1"
   id="svg3360"
   viewBox="0 0 1000 1000"
   height="1000"
   width="1000"
   inkscape:version="0.91 r13725"
   sodipodi:docname="star-sablier-yellow-white.svg">
  <sodipodi:namedview
     pagecolor="#ffffff"
     bordercolor="#666666"
     borderopacity="1"
     objecttolerance="10"
     gridtolerance="10"
     guidetolerance="10"
     inkscape:pageopacity="0"
     inkscape:pageshadow="2"
     inkscape:window-width="1280"
     inkscape:window-height="1024"
     id="namedview16"
     showgrid="false"
     inkscape:zoom="0.51040358"
     inkscape:cx="440.00325"
     inkscape:cy="455.09658"
     inkscape:window-x="0"
     inkscape:window-y="0"
     inkscape:window-maximized="1"
     inkscape:current-layer="g4145" />
  <defs
     id="defs3362" />
  <metadata
     id="metadata3365">
    <rdf:RDF>
      <cc:Work
         rdf:about="">
        <dc:format>image/svg+xml</dc:format>
        <dc:type
           rdf:resource="http://purl.org/dc/dcmitype/StillImage" />
        <dc:title />
      </cc:Work>
    </rdf:RDF>
  </metadata>
  <g
     transform="translate(0,-52.362161)"
     id="layer1">
    <g
       id="g4145"
       transform="matrix(1.1548692,0,0,1.1548692,-111.39929,-43.270754)">
      <path
         style="opacity:1;fill:#ffff00;fill-opacity:1;stroke:none"
         id="path4138"
         d="m 529.40022,105.44817 c 59.44114,-0.0273 134.52039,164.2041 182.62536,199.12061 48.10496,34.91651 227.518,55.40581 245.91232,111.92924 18.39432,56.52344 -114.59829,178.67836 -132.94061,235.21869 -18.34233,56.54033 17.61287,233.50382 -30.45995,268.46456 -48.07283,34.96074 -205.34604,-53.7748 -264.78718,-53.74746 -59.44114,0.0273 -216.63265,88.90748 -264.73761,53.99097 C 216.90759,885.50827 252.70001,708.51177 234.30569,651.98833 215.91137,595.46489 82.806471,473.43236 101.1488,416.89203 119.49113,360.3517 298.88527,339.69739 346.95809,304.73665 395.03092,269.77591 469.95908,105.4755 529.40022,105.44817 Z"
         inkscape:connector-curvature="0" />
      <path
         style="opacity:1;fill:none;fill-opacity:1;stroke:none"
         d="m 528.70962,236.78985 c 0.43129,-0.10101 0.76967,-0.42999 0.87493,-0.85062 0.0271,-0.1081 0.0348,-0.17202 0.0348,-0.29076 0,-0.13812 -0.009,-0.19848 -0.0564,-0.37458 -0.002,-0.0101 -0.003,-0.016 -8.7e-4,-0.0141 0.002,0.002 0.19813,0.34062 0.43582,0.75267 0.23769,0.41204 0.43841,0.75941 0.44605,0.77192 l 0.0138,0.0227 -0.90903,-5e-4 -0.90902,-4.9e-4 0.0701,-0.0163 z"
         id="path5807"
         inkscape:connector-curvature="0" />
      <path
         style="opacity:1;fill:none;fill-opacity:1;stroke:none"
         d="m 528.70962,236.78985 c 0.43129,-0.10101 0.76967,-0.42999 0.87493,-0.85062 0.0271,-0.1081 0.0348,-0.17202 0.0348,-0.29076 0,-0.13812 -0.009,-0.19848 -0.0564,-0.37458 -0.002,-0.0101 -0.003,-0.016 -8.7e-4,-0.0141 0.002,0.002 0.19813,0.34062 0.43582,0.75267 0.23769,0.41204 0.43841,0.75941 0.44605,0.77192 l 0.0138,0.0227 -0.90903,-5e-4 -0.90902,-4.9e-4 0.0701,-0.0163 z"
         id="path5809"
         inkscape:connector-curvature="0" />
      <path
         inkscape:connector-curvature="0"
         style="opacity:1;fill:#4d4d4d;fill-opacity:1;stroke:none"
         id="path6369-3-3"
         d="m 386.5612,383.68042 140.54931,247.00329 c 0,0 1.83584,3.63005 5.5075,3.63005 3.81075,0 5.71612,-4.00474 5.71612,-4.00474 L 666.49119,400.16714 c 0,0 17.05297,-23.33379 6.74122,-41.85143 -9.4055,-16.89019 -32.23899,-13.70145 -32.23899,-13.70145 l -222.89487,0.21079 c 0,0 -22.56972,-1.12356 -29.24625,10.0033 -7.73716,12.89444 -2.2911,28.85207 -2.2911,28.85207 z" />
      <path
         d="M 672.69661,753.62533 532.1473,506.62201 c 0,0 -1.83584,-3.63005 -5.50749,-3.63005 -3.81076,0 -5.71614,4.00474 -5.71614,4.00474 L 392.76662,737.13854 c 0,0 -17.05297,23.33384 -6.74119,41.85147 9.40548,16.8902 32.23894,13.70141 32.23894,13.70141 l 222.89489,-0.21075 c 0,0 22.56972,1.1236 29.24624,-10.00327 7.73717,-12.89451 2.29111,-28.85207 2.29111,-28.85207 z"
         id="path6369-3"
         style="opacity:1;fill:#4d4d4d;fill-opacity:1;stroke:none"
         inkscape:connector-curvature="0" />
      <g
         transform="matrix(-0.42158326,0,0,0.42158326,735.36495,418.46751)"
         id="layer1-7"
         style="fill:#ffffff">
        <path
           d="m 596.42752,848.18768 c -16.41951,26.39303 181.23487,31.32738 181.23487,31.32738 l -548.16239,10.5 c 0,0 -56.15411,7.56376 -79.28493,-32.5 -25.35954,-43.92401 16.57861,-99.27202 16.57861,-99.27202 L 481.96862,212.34405 c 0,0 4.68587,-9.4993 14.05763,-9.4993 9.02967,0 13.54451,8.61054 13.54451,8.61054 l 281.65105,587.89443 c 0,0 -225.75399,-14.79989 -268.69648,-3.7708 -12.90563,3.31461 17.67704,21.11442 65.70804,26.92349 51.31846,6.20666 53.37182,3.35538 69.35458,10.00091 17.00371,7.07003 -57.8495,10.3623 -61.16043,15.68436 z"
           id="path6369"
           style="opacity:1;fill:#ffffff;fill-opacity:1;stroke:none"
           inkscape:connector-curvature="0" />
      </g>
      <path
         inkscape:connector-curvature="0"
         style="opacity:1;fill:#ffffff;fill-opacity:1;stroke:none"
         id="path6369-6"
         d="m 574.10264,361.25647 c -6.92219,-11.12686 76.40559,-13.2071 76.40559,-13.2071 l -231.09609,-4.42662 c 0,0 -23.67363,-3.18876 -33.4252,13.70146 -10.69116,18.51762 6.98926,41.85142 6.98926,41.85142 L 525.84868,629.3175 c 0,0 1.97549,4.00475 5.92646,4.00475 3.80676,0 5.71014,-3.63006 5.71014,-3.63006 L 656.22465,381.84574 c 0,0 -95.1741,6.23939 -113.27794,1.58971 -5.4408,-1.39739 7.45235,-8.90149 27.70141,-11.3505 21.63501,-2.61662 22.50067,-1.41457 29.23873,-4.21621 7.16848,-2.98061 -24.38838,-4.36858 -25.78421,-6.61227 z" />
    </g>
  </g>
</svg>
