<?xml version="1.0" encoding="UTF-8" standalone="no"?>
<svg
   xmlns:dc="http://purl.org/dc/elements/1.1/"
   xmlns:cc="http://creativecommons.org/ns#"
   xmlns:rdf="http://www.w3.org/1999/02/22-rdf-syntax-ns#"
   xmlns:svg="http://www.w3.org/2000/svg"
   xmlns="http://www.w3.org/2000/svg"
   xmlns:sodipodi="http://sodipodi.sourceforge.net/DTD/sodipodi-0.dtd"
   xmlns:inkscape="http://www.inkscape.org/namespaces/inkscape"
   version="1.1"
   id="svg3360"
   viewBox="0 0 1000 1000"
   height="1000"
   width="1000"
   inkscape:version="0.91 r13725"
   sodipodi:docname="star-sablier-grey-2.svg">
  <sodipodi:namedview
     pagecolor="#ffffff"
     bordercolor="#666666"
     borderopacity="1"
     objecttolerance="10"
     gridtolerance="10"
     guidetolerance="10"
     inkscape:pageopacity="0"
     inkscape:pageshadow="2"
     inkscape:window-width="1280"
     inkscape:window-height="1024"
     id="namedview16"
     showgrid="false"
     inkscape:zoom="0.54307782"
     inkscape:cx="368.08457"
     inkscape:cy="353.94762"
     inkscape:window-x="0"
     inkscape:window-y="0"
     inkscape:window-maximized="1"
     inkscape:current-layer="layer1" />
  <defs
     id="defs3362" />
  <metadata
     id="metadata3365">
    <rdf:RDF>
      <cc:Work
         rdf:about="">
        <dc:format>image/svg+xml</dc:format>
        <dc:type
           rdf:resource="http://purl.org/dc/dcmitype/StillImage" />
        <dc:title></dc:title>
      </cc:Work>
    </rdf:RDF>
  </metadata>
  <g
     transform="translate(0,-52.362161)"
     id="layer1">
    <path
       d="m 499.10108,77.006325 c 68.64585,-0.03153 155.35144,189.631805 210.90567,229.955275 55.55423,40.32349 262.75014,63.98564 283.99288,129.26197 21.24277,65.27633 -132.34431,206.34747 -153.52701,271.64331 -21.18272,65.29584 20.3403,269.66288 -35.17681,310.03742 -55.51711,40.3745 -237.14475,-62.10203 -305.7906,-62.07046 -68.64586,0.0315 -250.17914,102.67516 -305.73337,62.35166 C 138.21762,977.86207 179.55266,773.4569 158.3099,708.18057 137.06713,642.90423 -16.649627,501.97443 4.5330914,436.67859 25.71581,371.38276 232.8899,347.53003 288.407,307.15547 343.92411,266.78091 430.45523,77.037887 499.10108,77.006325 Z"
       id="path4138"
       style="opacity:1;fill:#4d4d4d;fill-opacity:1;stroke:none"
       inkscape:connector-curvature="0" />
    <path
       id="path5807"
       d="m 498.30353,228.68682 c 0.49809,-0.11665 0.88886,-0.49658 1.01042,-0.98234 0.0313,-0.12484 0.0402,-0.19866 0.0402,-0.33579 0,-0.15951 -0.0103,-0.22921 -0.0651,-0.43258 -0.002,-0.0116 -0.003,-0.0185 -9.9e-4,-0.0163 0.002,0.002 0.22882,0.39336 0.50331,0.86922 0.2745,0.47585 0.5063,0.877 0.51512,0.89146 l 0.0159,0.0262 -1.0498,-5.8e-4 -1.04979,-5.7e-4 0.0809,-0.0188 z"
       style="opacity:1;fill:none;fill-opacity:1;stroke:none"
       inkscape:connector-curvature="0" />
    <path
       id="path5809"
       d="m 498.30353,228.68682 c 0.49809,-0.11665 0.88886,-0.49658 1.01042,-0.98234 0.0313,-0.12484 0.0402,-0.19866 0.0402,-0.33579 0,-0.15951 -0.0103,-0.22921 -0.0651,-0.43258 -0.002,-0.0116 -0.003,-0.0185 -9.9e-4,-0.0163 0.002,0.002 0.22882,0.39336 0.50331,0.86922 0.2745,0.47585 0.5063,0.877 0.51512,0.89146 l 0.0159,0.0262 -1.0498,-5.8e-4 -1.04979,-5.7e-4 0.0809,-0.0188 z"
       style="opacity:1;fill:none;fill-opacity:1;stroke:none"
       inkscape:connector-curvature="0" />
    <path
       d="M 334.14282,398.32402 496.4568,683.57683 c 0,0 2.12012,4.19217 6.36035,4.19217 4.40087,0 6.60129,-4.62488 6.60129,-4.62488 L 657.42117,417.36378 c 0,0 19.6937,-26.94712 7.78513,-48.3323 -10.86199,-19.5057 -37.23134,-15.82318 -37.23134,-15.82318 l -257.4111,0.24344 c 0,0 -26.06473,-1.29755 -33.77515,11.55235 -8.9353,14.89119 -2.64589,33.31993 -2.64589,33.31993 z"
       id="path6369-3-3"
       style="opacity:1;fill:#666666;fill-opacity:1;stroke:none"
       inkscape:connector-curvature="0" />
    <path
       inkscape:connector-curvature="0"
       style="opacity:1;fill:#666666;fill-opacity:1;stroke:none"
       id="path6369-3"
       d="M 664.58752,825.55649 502.27355,540.30365 c 0,0 -2.12012,-4.19218 -6.36034,-4.19218 -4.40088,0 -6.60132,4.62489 -6.60132,4.62489 L 341.30918,806.51665 c 0,0 -19.6937,26.94719 -7.78509,48.33234 10.86196,19.50573 37.23128,15.82314 37.23128,15.82314 l 257.41111,-0.24339 c 0,0 26.06474,1.2976 33.77515,-11.55231 8.9353,-14.89128 2.64589,-33.31994 2.64589,-33.31994 z" />
    <path
       d="m 446.57932,851.45283 c 7.99412,12.8499 -88.23732,15.25227 -88.23732,15.25227 l 266.8823,5.11211 c 0,0 27.3396,3.68254 38.60123,-15.82319 12.34673,-21.38516 -8.07158,-48.33229 -8.07158,-48.33229 L 502.3056,541.8814 c 0,0 -2.28139,-4.6249 -6.8442,-4.6249 -4.39625,0 -6.59437,4.19219 -6.59437,4.19219 L 351.74036,827.67522 c 0,0 109.91222,-7.20558 130.81951,-1.83587 6.28333,1.61377 -8.60637,10.27991 -31.99109,13.10816 -24.98528,3.02182 -25.98499,1.63362 -33.76647,4.86912 -8.27855,3.44216 28.16502,5.04506 29.77701,7.6362 z"
       id="path6369"
       style="opacity:1;fill:#ececec;fill-opacity:1;stroke:none"
       inkscape:connector-curvature="0" />
    <path
       d="m 550.72586,372.42763 c -7.99412,-12.8499 88.23732,-15.25228 88.23732,-15.25228 l -266.88231,-5.1121 c 0,0 -27.33959,-3.68255 -38.60124,15.8232 -12.34673,21.38514 8.07159,48.33228 8.07159,48.33228 l 153.44835,265.78032 c 0,0 2.28139,4.62491 6.84419,4.62491 4.39626,0 6.59438,-4.19219 6.59438,-4.19219 L 645.56481,396.20523 c 0,0 -109.91221,7.2056 -130.81951,1.83589 -6.28333,-1.61378 8.60637,-10.27992 31.99109,-13.10817 24.98529,-3.02182 25.98499,-1.63362 33.76648,-4.86911 8.27854,-3.44217 -28.16503,-5.04507 -29.77701,-7.63621 z"
       id="path6369-6"
       style="opacity:1;fill:#ececec;fill-opacity:1;stroke:none"
       inkscape:connector-curvature="0" />
  </g>
</svg>
